<svg width="182" height="210" viewBox="0 0 182 210" fill="none" xmlns="http://www.w3.org/2000/svg">
<path d="M5.16183 159.072C6.61732 155.9 8.87346 151.405 11.5379 149.541C18.3965 144.755 34.7171 136.472 63.2622 150.038C95.2565 165.241 96.1605 137.347 127.566 135.422C150.191 134.04 174.736 139.978 180.059 151.347C185.065 162.018 180.828 188.021 161.111 186.186C125.58 182.878 127.911 190.572 93.801 203.861C58.8957 217.453 51.43 182.252 18.6669 192.693C-2.98521 199.588 -1.46609 173.603 5.16183 159.072Z" fill="#FFF3E1"/>
<path d="M131.954 61.8815C131.954 61.8815 131.866 61.5351 131.872 61.6752C131.927 63.1955 132.932 71.4578 132.627 73.0151C132.288 74.7204 133.489 71.1352 133.489 71.1352L131.954 61.8815ZM116.93 45.9253C116.93 45.9253 123.293 65.895 126.132 70.2945C129.74 75.8943 129.531 63.7719 128.534 60.4352C127.513 57.014 123.155 49.5819 116.93 45.9253Z" fill="#E9EDFB"/>
<path d="M128.11 71.6084C128.11 71.6084 128.02 71.262 128.025 71.4022C128.081 72.9198 129.085 81.4491 128.778 83.0143C128.439 84.7197 129.801 80.8014 129.801 80.8014L128.11 71.6084ZM110.387 54.3884C110.387 54.3884 118.815 75.0905 121.649 79.4873C125.254 85.0872 124.451 71.3387 123.454 67.9994C122.434 64.5808 116.612 58.0423 110.387 54.3884Z" fill="#E9EDFB"/>
<path d="M123.221 80.7036C123.221 80.7036 123.155 80.5158 123.16 80.6851C123.21 82.512 124.586 92.67 124.268 94.5472C123.924 96.6016 125.528 91.9403 125.528 91.9403L123.221 80.7036ZM101.956 64.9854C101.956 64.9854 105.379 72.4545 109.761 78.7338C112.707 82.9641 116.654 86.2717 118.139 87.8263C122.829 92.752 118.839 79.8813 117.182 76.7641C115.482 73.5782 108.836 67.5896 101.956 64.9854Z" fill="#E9EDFB"/>
<path d="M119.984 88.6936C119.984 88.6936 119.918 88.5059 119.923 88.6751C119.973 90.5047 121.434 101.48 121.026 103.346C120.93 103.788 122.378 100.015 122.378 100.015L119.984 88.6936ZM97.9952 75.2888C97.9952 75.2888 101.837 83.6965 106.715 90.7876C109.992 95.5467 114.361 99.309 115.994 101.065C121.19 106.633 116.659 92.1677 114.806 88.6566C112.913 85.0582 105.562 78.2738 97.9952 75.2888ZM89.6042 92.3052C89.6042 92.3052 98.43 97.4873 104.663 102.368C111.977 108.095 113.274 108.745 115.45 109.451C122.344 111.68 112.004 97.7649 108.881 95.7397C105.684 93.6642 97.4225 91.4327 89.6042 92.3052Z" fill="#E9EDFB"/>
<path d="M124.79 103.79C124.79 103.79 125.132 103.418 125.077 103.492C124.501 104.285 121.248 107.651 120.912 108.6C120.832 108.822 121.466 106.937 121.466 106.937L124.79 103.79ZM121.773 109.853C121.773 109.853 121.98 109.686 121.954 109.723C121.643 110.107 119.615 111.553 119.568 112.074C119.568 112.198 119.647 111.154 119.647 111.154L121.773 109.853Z" fill="#E9EDFB"/>
<path d="M41.0083 104.848C41.0083 104.848 41.0773 104.66 41.072 104.83C41.0216 106.657 39.5953 116.812 39.9213 118.692C40.2793 120.746 38.6196 116.085 38.6196 116.085L41.0083 104.848ZM63.0475 89.1299C63.0475 89.1299 59.5002 96.599 54.9561 102.878C51.9073 107.109 47.798 110.416 46.2762 111.971C41.414 116.897 45.5498 104.026 47.2677 100.909C49.0281 97.7227 55.9158 91.7342 63.0475 89.1299Z" fill="#E9EDFB"/>
<path d="M44.3645 112.838C44.3645 112.838 44.4308 112.65 44.4255 112.819C44.3751 114.649 42.8613 125.624 43.2828 127.491C43.3836 127.932 41.8804 124.159 41.8804 124.159L44.3645 112.838ZM67.1513 99.4253C67.1513 99.4253 63.1745 107.833 58.1135 114.924C54.72 119.683 50.1918 123.445 48.4924 125.201C43.1052 130.769 47.8004 116.304 49.7225 112.793C51.6897 109.208 59.3091 102.424 67.1513 99.4253ZM75.8471 116.45C75.8471 116.45 66.7033 121.632 60.2397 126.512C52.66 132.239 51.3185 132.89 49.0624 133.596C41.9042 135.824 52.6388 121.909 55.8706 119.884C59.1845 117.809 67.7425 115.577 75.8471 116.45Z" fill="#E9EDFB"/>
<path d="M39.383 127.935C39.293 127.83 39.1974 127.73 39.0967 127.636C39.6958 128.429 43.0734 131.795 43.4154 132.741C43.4976 132.966 42.8401 131.081 42.8401 131.081L39.383 127.935ZM42.5087 133.995C42.5087 133.995 42.294 133.831 42.3231 133.865C42.6439 134.251 44.7437 135.697 44.8099 136.218C44.8232 136.342 44.7278 135.298 44.7278 135.298L42.5087 133.995Z" fill="#E9EDFB"/>
<path d="M132.359 109.707C132.359 109.707 132.32 109.557 132.312 109.689C132.227 111.125 132.614 119.181 132.237 120.632C131.829 122.219 133.401 118.673 133.401 118.673L132.359 109.707ZM116.757 95.9431C116.757 95.9431 118.931 102.024 121.94 107.259C123.961 110.768 126.834 113.636 127.89 114.956C131.233 119.133 128.979 108.774 127.89 106.231C126.776 103.597 121.975 98.4522 116.757 95.9431Z" fill="#FFBD5D"/>
<path d="M129.276 115.754C129.276 115.754 129.239 115.604 129.231 115.736C129.146 117.171 129.544 125.875 129.099 127.311C128.993 127.652 130.385 124.791 130.385 124.791L129.276 115.754ZM112.95 103.756C112.95 103.756 115.39 110.607 118.733 116.497C120.976 120.463 124.146 123.694 125.313 125.183C129.009 129.899 126.442 118.253 125.225 115.374C123.982 112.423 118.68 106.612 112.95 103.756ZM105.214 116.529C105.214 116.529 111.779 121.188 116.336 125.436C121.681 130.42 122.651 131.02 124.311 131.718C129.563 133.934 122.402 122.324 120.093 120.524C117.728 118.681 111.405 116.373 105.214 116.529Z" fill="#FFBD5D"/>
<path d="M132.017 127.914C132.096 127.838 132.178 127.767 132.264 127.699C131.758 128.289 128.979 130.7 128.651 131.422C128.574 131.591 129.199 130.156 129.199 130.156L132.017 127.914ZM129.236 132.474C129.236 132.474 129.411 132.361 129.388 132.387C129.122 132.667 127.431 133.664 127.346 134.069C127.328 134.164 127.471 133.352 127.471 133.352L129.236 132.474Z" fill="#FFBD5D"/>
<path d="M119.528 0H52.2704C44.4457 0 38.1025 6.32586 38.1025 14.1292V150.197C38.1025 158 44.4457 164.326 52.2704 164.326H119.528C127.353 164.326 133.696 158 133.696 150.197V14.1292C133.696 6.32586 127.353 0 119.528 0Z" fill="#FFE7C5"/>
<path d="M119.87 6.41675H51.6739C46.4892 6.41675 42.2861 10.6083 42.2861 15.7789V150.22C42.2861 155.391 46.4892 159.583 51.6739 159.583H119.87C125.055 159.583 129.258 155.391 129.258 150.22V15.7789C129.258 10.6083 125.055 6.41675 119.87 6.41675Z" fill="white"/>
<path d="M104.978 2.90576H64.988C62.8429 2.90576 61.104 4.63993 61.104 6.77913V6.78177C61.104 8.92098 62.8429 10.6551 64.988 10.6551H104.978C107.123 10.6551 108.862 8.92098 108.862 6.78177V6.77913C108.862 4.63993 107.123 2.90576 104.978 2.90576Z" fill="#FFE7C5"/>
<path d="M94.3656 3.57471H76.1733C75.3592 3.57471 74.6992 4.23286 74.6992 5.04474V5.04738C74.6992 5.85925 75.3592 6.51741 76.1733 6.51741H94.3656C95.1797 6.51741 95.8396 5.85925 95.8396 5.04738V5.04474C95.8396 4.23286 95.1797 3.57471 94.3656 3.57471Z" fill="white"/>
<path d="M95.2935 56.2578H54.4045C53.4792 56.2578 52.729 57.0059 52.729 57.9288C52.729 58.8516 53.4792 59.5997 54.4045 59.5997H95.2935C96.2189 59.5997 96.969 58.8516 96.969 57.9288C96.969 57.0059 96.2189 56.2578 95.2935 56.2578Z" fill="white"/>
<g clip-path="url(#clip0_45_543)">
<path d="M86.1208 59C73.4191 59 63.1208 69.2982 63.1208 82C63.1208 94.7018 73.4191 105 86.1208 105C98.8226 105 109.121 94.7018 109.121 82C109.121 69.2982 98.8226 59 86.1208 59ZM96.7756 75.6376L85.7586 92.4765C85.7557 92.4794 85.75 92.4823 85.75 92.4851C85.6925 92.5714 85.6609 92.6691 85.589 92.7496C85.4883 92.8589 85.359 92.9164 85.244 92.9998C85.2152 93.0199 85.1865 93.0429 85.1549 93.063C84.9766 93.1751 84.7926 93.2499 84.5914 93.2988C84.5252 93.316 84.4648 93.3333 84.3958 93.3447C84.2357 93.3668 84.0735 93.3687 83.9129 93.3505C83.7994 93.3433 83.6868 93.326 83.5765 93.2988C83.4626 93.2644 83.352 93.2202 83.2458 93.1665C83.1539 93.1234 83.0561 93.1119 82.9699 93.0573C82.9066 93.017 82.8721 92.9538 82.8175 92.9049C82.7945 92.8848 82.7657 92.879 82.7427 92.8589L76.3286 86.9277C75.9484 86.5627 75.7266 86.063 75.7109 85.5362C75.6951 85.0093 75.8867 84.4973 76.2445 84.1102C76.6022 83.7231 77.0975 83.4918 77.624 83.466C78.1504 83.4402 78.666 83.622 79.0598 83.9722L83.703 88.2675L93.4061 73.4354C93.6981 72.9886 94.1557 72.676 94.6782 72.5666C95.2006 72.4571 95.7452 72.5597 96.192 72.8517C96.6388 73.1438 96.9513 73.6014 97.0608 74.1238C97.1702 74.6463 97.0676 75.1908 96.7756 75.6376Z" fill="#9CE98F"/>
</g>
<defs>
<clipPath id="clip0_45_543">
<rect width="46" height="46" fill="white" transform="translate(63 59)"/>
</clipPath>
</defs>
</svg>
