<svg xmlns="http://www.w3.org/2000/svg" width="29.046" height="27.084" fill-rule="evenodd" clip-rule="evenodd" image-rendering="optimizeQuality" shape-rendering="geometricPrecision" text-rendering="geometricPrecision" viewBox="0 0 .89 .83" id="map"><polygon fill="#d9dad9" fill-rule="nonzero" points=".21 .35 0 .74 .3 .83 .36 .39"></polygon><polygon fill="#d9dad9" fill-rule="nonzero" points=".68 .39 .52 .35 .59 .74 .89 .83"></polygon><polygon fill="#bbbdbe" fill-rule="nonzero" points=".36 .39 .3 .83 .59 .74 .52 .35"></polygon><path fill="#788d98" fill-rule="nonzero" d="M0.62 0.46c0,0.03 -0.04,0.05 -0.1,0.05 -0.05,0 -0.1,-0.02 -0.1,-0.05 0,-0.03 0.04,-0.05 0.1,-0.05 0.05,0 0.1,0.02 0.1,0.05z"></path><path fill="#49b1a1" fill-rule="nonzero" d="M0.52 0c-0.08,0 -0.15,0.07 -0.15,0.15 0,0.12 0.15,0.3 0.15,0.3 0,0 0.15,-0.18 0.15,-0.3 0,-0.08 -0.07,-0.15 -0.15,-0.15z"></path><path fill="#fefefe" fill-rule="nonzero" d="M0.59 0.15c0,0.04 -0.03,0.07 -0.07,0.07 -0.04,0 -0.07,-0.03 -0.07,-0.07 0,-0.04 0.03,-0.07 0.07,-0.07 0.04,0 0.07,0.03 0.07,0.07z"></path></svg>