<svg width="182" height="210" viewBox="0 0 182 210" fill="none" xmlns="http://www.w3.org/2000/svg">
<path d="M5.16183 159.072C6.61732 155.9 8.87346 151.405 11.5379 149.541C18.3965 144.755 34.7171 136.472 63.2622 150.038C95.2565 165.241 96.1605 137.347 127.566 135.422C150.191 134.04 174.736 139.978 180.059 151.347C185.065 162.018 180.828 188.021 161.111 186.186C125.58 182.878 127.911 190.572 93.801 203.861C58.8957 217.453 51.43 182.252 18.6669 192.693C-2.98521 199.588 -1.46609 173.603 5.16183 159.072Z" fill="#FFF3E1"/>
<path d="M131.954 61.8815C131.954 61.8815 131.866 61.5351 131.872 61.6752C131.927 63.1955 132.932 71.4578 132.627 73.0151C132.288 74.7204 133.489 71.1352 133.489 71.1352L131.954 61.8815ZM116.93 45.9253C116.93 45.9253 123.293 65.895 126.132 70.2945C129.74 75.8943 129.531 63.7719 128.534 60.4352C127.513 57.014 123.155 49.5819 116.93 45.9253Z" fill="#E9EDFB"/>
<path d="M128.11 71.6084C128.11 71.6084 128.02 71.262 128.025 71.4022C128.081 72.9198 129.085 81.4491 128.778 83.0143C128.439 84.7197 129.801 80.8014 129.801 80.8014L128.11 71.6084ZM110.387 54.3884C110.387 54.3884 118.815 75.0905 121.649 79.4873C125.254 85.0872 124.451 71.3387 123.454 67.9994C122.434 64.5808 116.612 58.0423 110.387 54.3884Z" fill="#E9EDFB"/>
<path d="M123.221 80.7036C123.221 80.7036 123.155 80.5158 123.16 80.6851C123.21 82.512 124.586 92.67 124.268 94.5472C123.924 96.6016 125.528 91.9403 125.528 91.9403L123.221 80.7036ZM101.956 64.9854C101.956 64.9854 105.379 72.4545 109.761 78.7338C112.707 82.9641 116.654 86.2717 118.139 87.8263C122.829 92.752 118.839 79.8813 117.182 76.7641C115.482 73.5782 108.836 67.5896 101.956 64.9854Z" fill="#E9EDFB"/>
<path d="M119.984 88.6936C119.984 88.6936 119.918 88.5059 119.923 88.6751C119.973 90.5047 121.434 101.48 121.026 103.346C120.93 103.788 122.378 100.015 122.378 100.015L119.984 88.6936ZM97.9952 75.2888C97.9952 75.2888 101.837 83.6965 106.715 90.7876C109.992 95.5467 114.361 99.309 115.994 101.065C121.19 106.633 116.659 92.1677 114.806 88.6566C112.913 85.0582 105.562 78.2738 97.9952 75.2888ZM89.6042 92.3052C89.6042 92.3052 98.43 97.4873 104.663 102.368C111.977 108.095 113.274 108.745 115.45 109.451C122.344 111.68 112.004 97.7649 108.881 95.7397C105.684 93.6642 97.4225 91.4327 89.6042 92.3052Z" fill="#E9EDFB"/>
<path d="M124.79 103.79C124.79 103.79 125.132 103.418 125.077 103.492C124.501 104.285 121.248 107.651 120.912 108.6C120.832 108.822 121.466 106.937 121.466 106.937L124.79 103.79ZM121.773 109.853C121.773 109.853 121.98 109.686 121.954 109.723C121.643 110.107 119.615 111.553 119.568 112.074C119.568 112.198 119.647 111.154 119.647 111.154L121.773 109.853Z" fill="#E9EDFB"/>
<path d="M41.0083 104.848C41.0083 104.848 41.0773 104.66 41.072 104.83C41.0216 106.657 39.5953 116.812 39.9213 118.692C40.2793 120.746 38.6196 116.085 38.6196 116.085L41.0083 104.848ZM63.0475 89.1299C63.0475 89.1299 59.5002 96.599 54.9561 102.878C51.9073 107.109 47.798 110.416 46.2762 111.971C41.414 116.897 45.5498 104.026 47.2677 100.909C49.0281 97.7227 55.9158 91.7342 63.0475 89.1299Z" fill="#E9EDFB"/>
<path d="M44.3645 112.838C44.3645 112.838 44.4308 112.65 44.4255 112.819C44.3751 114.649 42.8613 125.624 43.2828 127.491C43.3836 127.932 41.8804 124.159 41.8804 124.159L44.3645 112.838ZM67.1513 99.4253C67.1513 99.4253 63.1745 107.833 58.1135 114.924C54.72 119.683 50.1918 123.445 48.4924 125.201C43.1052 130.769 47.8004 116.304 49.7225 112.793C51.6897 109.208 59.3091 102.424 67.1513 99.4253ZM75.8471 116.45C75.8471 116.45 66.7033 121.632 60.2397 126.512C52.66 132.239 51.3185 132.89 49.0624 133.596C41.9042 135.824 52.6388 121.909 55.8706 119.884C59.1845 117.809 67.7425 115.577 75.8471 116.45Z" fill="#E9EDFB"/>
<path d="M39.383 127.935C39.293 127.83 39.1974 127.73 39.0967 127.636C39.6958 128.429 43.0734 131.795 43.4154 132.741C43.4976 132.966 42.8401 131.081 42.8401 131.081L39.383 127.935ZM42.5087 133.995C42.5087 133.995 42.294 133.831 42.3231 133.865C42.6439 134.251 44.7437 135.697 44.8099 136.218C44.8232 136.342 44.7278 135.298 44.7278 135.298L42.5087 133.995Z" fill="#E9EDFB"/>
<path d="M132.359 109.707C132.359 109.707 132.32 109.557 132.312 109.689C132.227 111.125 132.614 119.181 132.237 120.632C131.829 122.219 133.401 118.673 133.401 118.673L132.359 109.707ZM116.757 95.9431C116.757 95.9431 118.931 102.024 121.94 107.259C123.961 110.768 126.834 113.636 127.89 114.956C131.233 119.133 128.979 108.774 127.89 106.231C126.776 103.597 121.975 98.4522 116.757 95.9431Z" fill="#FFBD5D"/>
<path d="M129.276 115.754C129.276 115.754 129.239 115.604 129.231 115.736C129.146 117.171 129.544 125.875 129.099 127.311C128.993 127.652 130.385 124.791 130.385 124.791L129.276 115.754ZM112.95 103.756C112.95 103.756 115.39 110.607 118.733 116.497C120.976 120.463 124.146 123.694 125.313 125.183C129.009 129.899 126.442 118.253 125.225 115.374C123.982 112.423 118.68 106.612 112.95 103.756ZM105.214 116.529C105.214 116.529 111.779 121.188 116.336 125.436C121.681 130.42 122.651 131.02 124.311 131.718C129.563 133.934 122.402 122.324 120.093 120.524C117.728 118.681 111.405 116.373 105.214 116.529Z" fill="#FFBD5D"/>
<path d="M132.017 127.914C132.096 127.838 132.178 127.767 132.264 127.699C131.758 128.289 128.979 130.7 128.651 131.422C128.574 131.591 129.199 130.156 129.199 130.156L132.017 127.914ZM129.236 132.474C129.236 132.474 129.411 132.361 129.388 132.387C129.122 132.667 127.431 133.664 127.346 134.069C127.328 134.164 127.471 133.352 127.471 133.352L129.236 132.474Z" fill="#FFBD5D"/>
<path d="M119.528 0H52.2704C44.4457 0 38.1025 6.32586 38.1025 14.1292V150.197C38.1025 158 44.4457 164.326 52.2704 164.326H119.528C127.353 164.326 133.696 158 133.696 150.197V14.1292C133.696 6.32586 127.353 0 119.528 0Z" fill="#FFE7C5"/>
<path d="M119.87 6.41675H51.6739C46.4892 6.41675 42.2861 10.6083 42.2861 15.7789V150.22C42.2861 155.391 46.4892 159.583 51.6739 159.583H119.87C125.055 159.583 129.258 155.391 129.258 150.22V15.7789C129.258 10.6083 125.055 6.41675 119.87 6.41675Z" fill="white"/>
<path d="M104.978 2.90576H64.988C62.8429 2.90576 61.104 4.63993 61.104 6.77913V6.78177C61.104 8.92098 62.8429 10.6551 64.988 10.6551H104.978C107.123 10.6551 108.862 8.92098 108.862 6.78177V6.77913C108.862 4.63993 107.123 2.90576 104.978 2.90576Z" fill="#FFE7C5"/>
<path d="M94.3656 3.57471H76.1733C75.3592 3.57471 74.6992 4.23286 74.6992 5.04474V5.04738C74.6992 5.85925 75.3592 6.51741 76.1733 6.51741H94.3656C95.1797 6.51741 95.8396 5.85925 95.8396 5.04738V5.04474C95.8396 4.23286 95.1797 3.57471 94.3656 3.57471Z" fill="white"/>
<path d="M95.2935 56.2578H54.4045C53.4792 56.2578 52.729 57.0059 52.729 57.9288C52.729 58.8516 53.4792 59.5997 54.4045 59.5997H95.2935C96.2189 59.5997 96.969 58.8516 96.969 57.9288C96.969 57.0059 96.2189 56.2578 95.2935 56.2578Z" fill="white"/>
<path d="M93.1719 95.8281C93.2648 95.921 93.375 95.9947 93.4963 96.0449C93.6176 96.0952 93.7476 96.1211 93.8789 96.1211C94.0103 96.1211 94.1403 96.0952 94.2616 96.0449C94.3829 95.9947 94.4931 95.921 94.5859 95.8281L95 95.4141V96C95 96.2652 95.1054 96.5196 95.2929 96.7071C95.4805 96.8946 95.7348 97 96 97C96.2653 97 96.5196 96.8946 96.7071 96.7071C96.8947 96.5196 97 96.2652 97 96V95.4141L97.4141 95.8281C97.6027 96.0103 97.8553 96.1111 98.1175 96.1088C98.3797 96.1065 98.6305 96.0013 98.816 95.8159C99.0014 95.6305 99.1065 95.3797 99.1088 95.1175C99.1111 94.8553 99.0103 94.6027 98.8281 94.4141L97.4141 93L98.8281 91.5859C99.0103 91.3973 99.1111 91.1447 99.1088 90.8825C99.1065 90.6203 99.0014 90.3695 98.816 90.1841C98.6305 89.9987 98.3797 89.8935 98.1175 89.8912C97.8553 89.8889 97.6027 89.9897 97.4141 90.1719L97 90.5859V90C97 89.7348 96.8947 89.4804 96.7071 89.2929C96.5196 89.1054 96.2653 89 96 89C95.7348 89 95.4805 89.1054 95.2929 89.2929C95.1054 89.4804 95 89.7348 95 90V90.5859L94.5859 90.1719C94.3973 89.9897 94.1447 89.8889 93.8825 89.8912C93.6203 89.8935 93.3695 89.9987 93.1841 90.1841C92.9987 90.3695 92.8935 90.6203 92.8913 90.8825C92.889 91.1447 92.9898 91.3973 93.1719 91.5859L94.5859 93L93.1719 94.4141C92.9845 94.6016 92.8792 94.8559 92.8792 95.1211C92.8792 95.3863 92.9845 95.6406 93.1719 95.8281ZM102.172 95.8281C102.265 95.921 102.375 95.9947 102.496 96.0449C102.618 96.0952 102.748 96.1211 102.879 96.1211C103.01 96.1211 103.14 96.0952 103.262 96.0449C103.383 95.9947 103.493 95.921 103.586 95.8281L104 95.4141V96C104 96.2652 104.105 96.5196 104.293 96.7071C104.48 96.8946 104.735 97 105 97C105.265 97 105.52 96.8946 105.707 96.7071C105.895 96.5196 106 96.2652 106 96V95.4141L106.414 95.8281C106.603 96.0103 106.855 96.1111 107.118 96.1088C107.38 96.1065 107.631 96.0013 107.816 95.8159C108.001 95.6305 108.107 95.3797 108.109 95.1175C108.111 94.8553 108.01 94.6027 107.828 94.4141L106.414 93L107.828 91.5859C108.01 91.3973 108.111 91.1447 108.109 90.8825C108.107 90.6203 108.001 90.3695 107.816 90.1841C107.631 89.9987 107.38 89.8935 107.118 89.8912C106.855 89.8889 106.603 89.9897 106.414 90.1719L106 90.5859V90C106 89.7348 105.895 89.4804 105.707 89.2929C105.52 89.1054 105.265 89 105 89C104.735 89 104.48 89.1054 104.293 89.2929C104.105 89.4804 104 89.7348 104 90V90.5859L103.586 90.1719C103.397 89.9897 103.145 89.8889 102.883 89.8912C102.62 89.8935 102.37 89.9987 102.184 90.1841C101.999 90.3695 101.894 90.6203 101.891 90.8825C101.889 91.1447 101.99 91.3973 102.172 91.5859L103.586 93L102.172 94.4141C101.984 94.6016 101.879 94.8559 101.879 95.1211C101.879 95.3863 101.984 95.6406 102.172 95.8281ZM84.1719 95.8281C84.2648 95.921 84.375 95.9947 84.4963 96.0449C84.6176 96.0952 84.7476 96.1211 84.8789 96.1211C85.0103 96.1211 85.1403 96.0952 85.2616 96.0449C85.3829 95.9947 85.4931 95.921 85.5859 95.8281L86 95.4141V96C86 96.2652 86.1054 96.5196 86.2929 96.7071C86.4805 96.8946 86.7348 97 87 97C87.2653 97 87.5196 96.8946 87.7071 96.7071C87.8947 96.5196 88 96.2652 88 96V95.4141L88.4141 95.8281C88.6027 96.0103 88.8553 96.1111 89.1175 96.1088C89.3797 96.1065 89.6305 96.0013 89.816 95.8159C90.0014 95.6305 90.1065 95.3797 90.1088 95.1175C90.1111 94.8553 90.0103 94.6027 89.8281 94.4141L88.4141 93L89.8281 91.5859C90.0103 91.3973 90.1111 91.1447 90.1088 90.8825C90.1065 90.6203 90.0014 90.3695 89.816 90.1841C89.6305 89.9987 89.3797 89.8935 89.1175 89.8912C88.8553 89.8889 88.6027 89.9897 88.4141 90.1719L88 90.5859V90C88 89.7348 87.8947 89.4804 87.7071 89.2929C87.5196 89.1054 87.2653 89 87 89C86.7348 89 86.4805 89.1054 86.2929 89.2929C86.1054 89.4804 86 89.7348 86 90V90.5859L85.5859 90.1719C85.3973 89.9897 85.1447 89.8889 84.8825 89.8912C84.6203 89.8935 84.3695 89.9987 84.1841 90.1841C83.9987 90.3695 83.8935 90.6203 83.8913 90.8825C83.889 91.1447 83.9898 91.3973 84.1719 91.5859L85.5859 93L84.1719 94.4141C83.9845 94.6016 83.8792 94.8559 83.8792 95.1211C83.8792 95.3863 83.9845 95.6406 84.1719 95.8281Z" fill="#6A6A6A"/>
<path d="M110 86H100V72C99.9989 70.9395 99.5771 69.9227 98.8272 69.1728C98.0773 68.4229 97.0605 68.0011 96 68H94V63C93.9979 61.1441 93.2597 59.3649 91.9474 58.0526C90.6351 56.7403 88.8559 56.0021 87 56H81C79.1441 56.0021 77.3649 56.7403 76.0526 58.0526C74.7403 59.3649 74.0021 61.1441 74 63V68H72C70.9395 68.0011 69.9227 68.4229 69.1728 69.1728C68.4229 69.9227 68.0011 70.9395 68 72V92C68.001 93.0606 68.4228 94.0774 69.1727 94.8273C69.9226 95.5772 70.9395 95.999 72 96H80V98C80.0007 98.5302 80.2117 99.0385 80.5866 99.4134C80.9615 99.7883 81.4698 99.9993 82 100H110C110.53 99.9993 111.039 99.7883 111.413 99.4134C111.788 99.0385 111.999 98.5302 112 98V88C111.999 87.4698 111.788 86.9615 111.413 86.5866C111.039 86.2117 110.53 86.0007 110 86ZM76 63C76.0016 61.6744 76.5288 60.4035 77.4662 59.4662C78.4035 58.5288 79.6744 58.0016 81 58H87C88.3256 58.0016 89.5965 58.5288 90.5338 59.4662C91.4712 60.4035 91.9984 61.6744 92 63V68H76V63ZM72 94C71.4698 93.9993 70.9615 93.7883 70.5866 93.4134C70.2117 93.0385 70.0007 92.5302 70 92V72C70.0006 71.4698 70.2115 70.9614 70.5865 70.5865C70.9614 70.2115 71.4698 70.0006 72 70H96C96.5302 70.0006 97.0386 70.2115 97.4135 70.5865C97.7885 70.9614 97.9994 71.4698 98 72V86H82C81.4698 86.0007 80.9615 86.2117 80.5866 86.5866C80.2117 86.9615 80.0007 87.4698 80 88V94H72ZM110 98H82V88L110 88.0029V98Z" fill="#6A6A6A"/>
</svg>
